<svg xmlns="http://www.w3.org/2000/svg" xmlns:xlink="http://www.w3.org/1999/xlink" width="20.455" height="18.487" viewBox="0 0 20.455 18.487">
  <defs>
    <clipPath id="clip-path">
      <rect id="Rectangle_17459" data-name="Rectangle 17459" width="20.455" height="18.487" fill="none"/>
    </clipPath>
  </defs>
  <g id="Group_9404" data-name="Group 9404" clip-path="url(#clip-path)">
    <path id="Path_10872" data-name="Path 10872" d="M19.816,2.631a5.212,5.212,0,0,0-6.2-2.355,6.273,6.273,0,0,0-3.393,2.408A6.276,6.276,0,0,0,6.835.276a5.2,5.2,0,0,0-6.2,2.355c-1.2,2.461-.7,5.23,1.486,8.235A38.727,38.727,0,0,0,9.84,18.355a.664.664,0,0,0,.388.132.657.657,0,0,0,.386-.132,38.942,38.942,0,0,0,7.726-7.488c2.181-3.006,2.682-5.774,1.477-8.235m-3.031,7.409a33.862,33.862,0,0,1-6.557,6.416,33.833,33.833,0,0,1-6.557-6.425C1.9,7.606,1.492,5.514,2.4,3.625A3.5,3.5,0,0,1,5.57,1.893a4.828,4.828,0,0,1,1.178.167,4.7,4.7,0,0,1,2.927,2.5A.648.648,0,0,0,10,4.881a.6.6,0,0,0,.773-.325A4.75,4.75,0,0,1,13.7,2.06a3.749,3.749,0,0,1,4.35,1.573c.914,1.881.51,3.973-1.265,6.407" transform="translate(0 0)" fill="#c4c4c4"/>
  </g>
</svg>
