<svg xmlns="http://www.w3.org/2000/svg" width="40.029" height="15.974" viewBox="0 0 40.029 15.974">
  <g id="Group_9396" data-name="Group 9396" transform="translate(-5498.167 -746.513)">
    <path id="Path_10867" data-name="Path 10867" d="M98.146,9.231,95.717,7.987l2.429-1.244a2,2,0,0,0,1.041-2.136,1.957,1.957,0,0,0-1.706-1.622l-.275-.029L95.892,1.687l-.042-.174A1.959,1.959,0,0,0,94.35.039,1.887,1.887,0,0,0,93.972,0a1.918,1.918,0,0,0-1.557.809l-2.23,3.11L87.955.809A1.918,1.918,0,0,0,86.4,0a1.889,1.889,0,0,0-.379.039,1.911,1.911,0,0,0-.9.457H80.616a.862.862,0,0,0-.85.873v.408a.862.862,0,0,1-.85.873H77.7a.862.862,0,0,0-.85.873v.408a.862.862,0,0,0,.85.873h1.216a.862.862,0,0,1,.85.873v.408a.862.862,0,0,1-.85.873H75.306a.862.862,0,0,0-.85.873v.408a.862.862,0,0,0,.85.873h3.611a.862.862,0,0,1,.85.873V10.4a.862.862,0,0,1-.85.873H77.7a.862.862,0,0,0-.85.873v.408a.862.862,0,0,0,.85.873h1.216a.862.862,0,0,1,.85.873V14.7a.862.862,0,0,0,.85.873H85.24a1.9,1.9,0,0,0,.779.358,1.874,1.874,0,0,0,.379.039,1.918,1.918,0,0,0,1.557-.809l2.23-3.11,2.23,3.11a1.918,1.918,0,0,0,1.557.809,1.872,1.872,0,0,0,.379-.039,1.959,1.959,0,0,0,1.5-1.475l.042-.173,1.314-1.269.275-.029a1.957,1.957,0,0,0,1.706-1.622,2,2,0,0,0-1.041-2.136M94.322,1.224l.207.84,2.559,2.4,1.073.11L91.427,7.931l-1.163-1.2ZM82.777,4.468l2.559-2.4.207-.84L89.6,6.729l-1.163,1.2L81.7,4.577Zm2.766,10.283-.207-.84-2.559-2.4L81.7,11.4l6.733-3.354,1.163,1.2Zm4.39-5.691L88.86,7.987l1.072-1.072L91,7.987Zm7.155,2.447-2.559,2.4-.207.84L90.264,9.245l1.163-1.2L98.16,11.4Z" transform="translate(5438.977 746.513)" fill="#bababa"/>
    <path id="Path_10868" data-name="Path 10868" d="M8.027,16.9A8,8,0,0,1,0,9.154,7.984,7.984,0,0,1,8.027,1.433,8.9,8.9,0,0,1,12.92,2.941a.711.711,0,0,1,.31.544.718.718,0,0,1-.238.586l-.458.411a.712.712,0,0,1-.477.182.744.744,0,0,1-.441-.145,6.233,6.233,0,0,0-3.59-1.2,5.847,5.847,0,0,0,0,11.69,6.039,6.039,0,0,0,2.717-.665,1.961,1.961,0,0,0,1.069-1.762v-.359a1.988,1.988,0,0,0-1.986-1.986H8.768a.72.72,0,1,1,0-1.441h4.448a.721.721,0,0,1,.72.72V14.25a.709.709,0,0,1-.233.531A8.755,8.755,0,0,1,8.027,16.9" transform="translate(5498.167 745.374)" fill="#bababa"/>
  </g>
</svg>
