<svg xmlns="http://www.w3.org/2000/svg" width="17.55" height="17.551" viewBox="0 0 17.55 17.551">
  <g id="Group_9652" data-name="Group 9652" transform="translate(-5308.711 -744)">
    <path id="Path_127" data-name="Path 127" d="M3.877,12.652h.878v6.143A1.756,1.756,0,0,0,6.51,20.55H17.04a1.756,1.756,0,0,0,1.755-1.755V12.652h.878a.878.878,0,0,0,.62-1.5l-7.9-7.9a.876.876,0,0,0-1.241,0l-7.9,7.9a.878.878,0,0,0,.621,1.5Zm7.9-7.534,5.265,5.265v8.412H6.51V10.383Z" transform="translate(5305.711 741.001)" fill="#c4c4c4"/>
    <path id="Path_128" data-name="Path 128" d="M14.918,24.313a4.736,4.736,0,0,0,4.344-3.237l-1.667-.545a3,3,0,0,1-2.676,2.027,2.992,2.992,0,0,1-2.678-2.032l-1.667.55A4.738,4.738,0,0,0,14.918,24.313Z" transform="translate(5302.568 733.727)" fill="#c4c4c4"/>
  </g>
</svg>
