<svg id="Group_9347" data-name="Group 9347" xmlns="http://www.w3.org/2000/svg" xmlns:xlink="http://www.w3.org/1999/xlink" width="190.889" height="81.996" viewBox="0 0 190.889 81.996">
  <defs>
    <clipPath id="clip-path">
      <rect id="Rectangle_2" data-name="Rectangle 2" width="190.889" height="81.996" fill="none"/>
    </clipPath>
  </defs>
  <g id="Group_1" data-name="Group 1" clip-path="url(#clip-path)">
    <path id="Path_1" data-name="Path 1" d="M116.737,112.438c-8.237,0-14.916,5.52-14.916,12.331S108.5,137.1,116.737,137.1s14.916-5.52,14.916-12.331-6.678-12.331-14.916-12.331m4.43,19.2a8.444,8.444,0,0,1-6.725-.574,8.646,8.646,0,0,1-3.547-11.365,11.659,11.659,0,0,1,1.707-2.533s9.3,0,11.076,5.907c0,0,1.034,6.2-2.511,8.565" transform="translate(-73.54 -81.209)" fill="#fe5a01"/>
    <path id="Path_2" data-name="Path 2" d="M24.072,116.426h-8.79l.666,2.215v6.865H8.124v-6.865l.666-2.215H0l1.053,2.511v18.447L0,139.269H8.877l-.9-1.577v-7.827H16.1v7.827l-.9,1.577h8.877l-1.053-1.885V118.936Z" transform="translate(0 -84.089)" fill="#fe5a01"/>
    <path id="Path_3" data-name="Path 3" d="M239.441,132.227l-6.6.814h-.491v-5.1l.151-4.358v-7.6l.666-2.215h-8.79l1.053,2.511v19.186l-1.053,1.885h14.768l3.4-6.3h-1.329Z" transform="translate(-162.057 -82.168)" fill="#fe5a01"/>
    <path id="Path_4" data-name="Path 4" d="M314.411,132.227l-6.6.814h-.491v-5.1l.151-4.358v-7.6l.666-2.215h-8.79l1.053,2.511v19.186l-1.053,1.885h14.768l3.4-6.3h-1.329Z" transform="translate(-216.204 -82.168)" fill="#fe5a01"/>
    <path id="Path_5" data-name="Path 5" d="M388,98.348h-5.3l-11.224,27.173h-.685v.691h7.975l2.088-7.263h9.008L392,126.212h8.421v-.691h-.443Zm-5.525,15.58,2.215-6.343h.912l2.336,6.343Z" transform="translate(-267.802 -71.032)" fill="#fe5a01"/>
    <path id="Path_6" data-name="Path 6" d="M502.271,117.223V128h-1.411l-9.6-12.11h-9.008v.834l2.734,1.773v18.883l-.588.588v.913h8.44V137.65l-.711-.711v-9.549h.792l9.5,11.5h7.5v-2.168h-.5l-.591-1.527V117.223l.886-1.329H501.53Z" transform="translate(-348.308 -83.705)" fill="#fe5a01"/>
    <path id="Path_7" data-name="Path 7" d="M609.08,113.753h-8.79l1.053,2.511v19.186l-1.053,1.885h11.258a12.925,12.925,0,0,0,12.777-10.747,9.326,9.326,0,0,0,.125-1.043c0-12.429-15.37-11.791-15.37-11.791m-.325,19.274h-.491v-5.1l.151-4.358v-5.605c8.485.209,8.35,7.574,8.35,7.574,0,5.955-4.852,7.1-4.852,7.1Z" transform="translate(-433.561 -82.154)" fill="#fe5a01"/>
    <path id="Path_8" data-name="Path 8" d="M335.692,221.172l3.31-4.414h19.31s4.965,0,4.965,4.965c0,.552.552,2.759-6.62,7.172,0,0,.552.552.552,3.862,0,0-.827,5.793-10.206,5.793H337.33l6.362-16h5.517l-4.965,13.241s7.724,0,7.724-3.31a9.122,9.122,0,0,0-1.432-2.4v-1.408s6.268-2.166,6.268-5.6c0,0-.211-2.043-3.275-2.043s-17.836.141-17.836.141" transform="translate(-242.454 -156.554)" fill="#0946fe"/>
    <path id="Path_9" data-name="Path 9" d="M488.868,256.816s1.738-5.164,2.819-8.27H483.4l1.137-3.283h-3.244c-4.138,0-4.331,3.283-4.331,3.283,0,1.765,1.9,2.985,1.9,2.985l-1.236,4.524h-5.81l2.891-7.509h-9.9c-6.847,0-7.216,7.509-7.216,7.509h-7.784l6.946-7.509H443.788L442,251.3h5.23l-4.3,4.75h-6.163s2.1-5.225,2.985-7.509h-9.517c-.11,0-7.183.022-7.183,5.682,0,0-.144,4.91,3.592,4.91h2.549a4.323,4.323,0,0,0,1.252-1.158s.6-.463,1.594,1.158h7.443c1.44-.634,2.516-1.219,2.516-1.219s.386-.265,1.727,1.219h13.241c.309-.535.833-1.28,1.4-1.236a4.118,4.118,0,0,1,1.677,1.236h4.231a2.96,2.96,0,0,0,.7-1.236c.171-.657,1.092.017,2.262,1.236h8.888c.745-.987,1.688-2.212,1.688-2.212h2.207l2.422-5.07h2.979l-1.9,4.811,1.07,2.471H494.4l.987-2.322Zm-56.98-1.589c-.634,1.572-1.655.988-1.655.988-1.021,0-1.269-1.126-1.269-1.126l.988-4.049h2.99a24.484,24.484,0,0,1-1.054,4.187m34.857,0c-.634,1.572-1.655.988-1.655.988-1.021,0-1.269-1.126-1.269-1.126l.988-4.049h2.99a24.484,24.484,0,0,1-1.054,4.187" transform="translate(-305.548 -177.142)" fill="#0946fe"/>
    <path id="Path_10" data-name="Path 10" d="M350.786,2.289,351.35,0l11.057,15-3.169,3.275L340.891,9.139l2.923-.3Z" transform="translate(-246.209 0)" fill="#64b842"/>
    <path id="Path_11" data-name="Path 11" d="M436.487,2.289,435.923,0,424.866,15l3.169,3.275,18.347-9.138-2.923-.3Z" transform="translate(-306.86 0)" fill="#f5a91c"/>
    <path id="Path_12" data-name="Path 12" d="M350.786,82.889l.564,2.289,11.057-15L359.238,66.9,340.891,76.04l2.923.3Z" transform="translate(-246.209 -48.32)" fill="#3a50a3"/>
    <path id="Path_13" data-name="Path 13" d="M436.487,82.889l-.564,2.289-11.057-15,3.169-3.275,18.347,9.138-2.923.3Z" transform="translate(-306.86 -48.32)" fill="#81cecb"/>
    <rect id="Rectangle_1" data-name="Rectangle 1" width="4.132" height="4.132" transform="translate(114.18 18.429) rotate(-45.003)"/>
  </g>
</svg>
