<svg xmlns="http://www.w3.org/2000/svg" width="20.982" height="21" viewBox="0 0 20.982 21">
  <path id="Path_10859" data-name="Path 10859" d="M358.462,12.668l-1.343-1.376a4.866,4.866,0,0,0,.528-2.2,4.984,4.984,0,0,0-9.922-.682l-1.291.011a1.745,1.745,0,0,0-1.229.514l-6.716,6.716a1.761,1.761,0,0,0,0,2.482l6.461,6.459a8.345,8.345,0,0,1,3.16.515h9.1a1.75,1.75,0,0,0,1.751-1.751V13.889a1.729,1.729,0,0,0-.5-1.221m-.674,10.684a.583.583,0,0,1-.578.578h-9.1a.583.583,0,0,1-.577-.58V13.892a.565.565,0,0,1,.165-.4c.033-.035,3.457-3.484,4.578-4.646a.592.592,0,0,1,.826.011c.372.388,1.327,1.365,1.793,1.839a2.851,2.851,0,0,1-.55.569,2.575,2.575,0,1,0,.766,2.69,5.5,5.5,0,0,0,1.395-1.01c.1-.1.194-.2.285-.307l.832.853a.559.559,0,0,1,.164.4Zm-3.933-9.428a1.392,1.392,0,0,1-2.387,0,4.785,4.785,0,0,0,2.387,0m-2.146-1.743a1.4,1.4,0,0,1,1.908,0,3.155,3.155,0,0,1-1.908,0m.952-6.327A3.256,3.256,0,0,1,355.9,9.1a2.993,2.993,0,0,1-.117.826s-1.388-1.41-1.844-1.889a1.772,1.772,0,0,0-2.5-.008c-.087.091-.353.358-.353.358L349.5,8.4a3.222,3.222,0,0,1,3.16-2.542" transform="translate(-337.978 -4.103)" fill="#c4c4c4"/>
</svg>
