<svg xmlns="http://www.w3.org/2000/svg" xmlns:xlink="http://www.w3.org/1999/xlink" width="13.317" height="12.486" viewBox="0 0 13.317 12.486">
  <defs>
    <clipPath id="clip-path">
      <path id="Path_135" data-name="Path 135" d="M3.008,13.562a.442.442,0,0,1-.621-.493l.691-3.937L.146,6.338a.463.463,0,0,1,.236-.791l4.077-.579,1.818-3.6a.427.427,0,0,1,.772,0l1.818,3.6,4.077.579a.463.463,0,0,1,.236.791L10.245,9.132l.691,3.937a.442.442,0,0,1-.621.493L6.661,11.684,3.008,13.562Z" transform="translate(-0.003 -1.123)" fill="#fcba47"/>
    </clipPath>
  </defs>
  <g id="Mask_Group_1" data-name="Mask Group 1" clip-path="url(#clip-path)">
    <g id="__TEMP__SVG__" transform="translate(0 0)">
      <path id="Path_145" data-name="Path 145" d="M4.456,4.261,6.274.659a.428.428,0,0,1,.772,0l1.818,3.6,4.077.579a.447.447,0,0,1,.377.42.458.458,0,0,1-.142.37L10.243,8.424l.691,3.937a.442.442,0,0,1-.621.493L6.659,10.976,3.006,12.854a.432.432,0,0,1-.121.042.448.448,0,0,1-.5-.535l.691-3.937L.144,5.631A.458.458,0,0,1,0,5.3a.491.491,0,0,1,.07-.251.427.427,0,0,1,.308-.2l4.077-.579Zm2.2,5.75a.411.411,0,0,1,.193.047l3.068,1.576L9.342,8.34a.469.469,0,0,1,.136-.42L11.9,5.614,8.524,5.135A.437.437,0,0,1,8.2,4.9L6.66,1.85l0,0v8.157Z" transform="translate(-0.001 -0.416)" fill="#fcba47" fill-rule="evenodd"/>
    </g>
  </g>
</svg>
