<svg xmlns="http://www.w3.org/2000/svg" width="13.317" height="12.486" viewBox="0 0 13.317 12.486">
    <g id="star-fill" transform="translate(0)">
        <path id="Path_135" data-name="Path 135"
            d="M3.008,13.562a.442.442,0,0,1-.621-.493l.691-3.937L.146,6.338a.463.463,0,0,1,.236-.791l4.077-.579,1.818-3.6a.427.427,0,0,1,.772,0l1.818,3.6,4.077.579a.463.463,0,0,1,.236.791L10.245,9.132l.691,3.937a.442.442,0,0,1-.621.493L6.661,11.684,3.008,13.562Z"
            transform="translate(-0.003 -1.123)" fill="#fcba47" />
    </g>
</svg>
