<svg xmlns="http://www.w3.org/2000/svg" width="30" height="16" viewBox="0 0 30 16">
  <g id="Group_9651" data-name="Group 9651" transform="translate(-17 -565)">
    <path id="Rectangle_17474" data-name="Rectangle 17474" d="M0,0H5A0,0,0,0,1,5,0V11a0,0,0,0,1,0,0H5A5,5,0,0,1,0,6V0A0,0,0,0,1,0,0Z" transform="translate(17 570)" fill="#a03800"/>
    <path id="Rectangle_17475" data-name="Rectangle 17475" d="M0,0H26a4,4,0,0,1,4,4v7a0,0,0,0,1,0,0H0a0,0,0,0,1,0,0V0A0,0,0,0,1,0,0Z" transform="translate(17 565)" fill="#fd5900"/>
  </g>
</svg>
